# xmcd CD database file
#
# Track frame offsets:
#	150
#	14663
#	27885
#	44172
#	61296
#	78123
#	94002
#	108926
#	126470
#	141363
#	157007
#
# Disc length: 2297 seconds
#
# Revision: 5
# Processed by: cddbd v1.5.2PL0 Copyright (c) Steve Scherf et al.
# Submitted via: CDex 1.70beta2
#
DISCID=9608f70b
DTITLE=Luke Bryan, 1976- - Spring Break...Checkin' Out
DYEAR=2015
DGENRE=Country Contemporary
TTITLE0=My Ol' Bronco - Luke Bryan, Jeff Stevens, Jody Stevens
TTITLE1=Games  - Luke Bryan, Ashley Gorley
TTITLE2=She Get Me High - Luke Bryan, Jeff Stevens, Jody Stevens
TTITLE3=Spring Breakdown - Luke Bryan, Zach Crowell, Ashley Gorley
TTITLE4=Good Lookin' Girl - Luke Bryan, Michael Carter, Jim McCormick
TTITLE5=Checkin' Out - Rhett Akins, Luke Bryan, Dallas Davidson, Ben Hayslip
TTITLE6=You and the Beach - Rhett Akins, Luke Bryan, Dallas Davidson, Ben Hayslip
TTITLE7=Night One - Rhett Akins, Luke Bryan, Ashley Gorley, Ben Hayslip
TTITLE8=Like We Ain't Ever - Luke Bryan, Jay Clementi, Jason Matthews
TTITLE9=The Sand I Brought To the Beach - Luke Bryan, Michael Carter, Cole Swindell
TTITLE10=The Sand I Brought To the Beach - Luke Bryan, Michael Carter, Cole Swindell
EXTD=when I grabbed this CD, song one is titled wrong it should be My Ol' Bronco , NOT( My Old Bronco ) YEAR: 2015
EXTT0=
EXTT1=
EXTT2=
EXTT3=
EXTT4=
EXTT5=
EXTT6=
EXTT7=
EXTT8=
EXTT9=
EXTT10=
PLAYORDER=
